<svg width="72" height="72" viewBox="0 0 72 72" fill="none" xmlns="http://www.w3.org/2000/svg">
<path fill-rule="evenodd" clip-rule="evenodd" d="M63 36C63 50.9117 50.9117 63 36 63C21.0883 63 9 50.9117 9 36C9 21.0883 21.0883 9 36 9C50.9117 9 63 21.0883 63 36ZM39 36V24C39 22.2 37.7999 21 36 21C34.2001 21 33 22.2 33 24V36C33 37.8 34.2001 39 36 39C37.7999 39 39 37.8 39 36ZM36 51C37.6569 51 39 49.6568 39 48C39 46.3432 37.6569 45 36 45C34.3431 45 33 46.3432 33 48C33 49.6568 34.3431 51 36 51Z" fill="#EF0CAF"/>
</svg>
